<svg width="40" height="40" viewBox="0 0 40 40" fill="none" xmlns="http://www.w3.org/2000/svg">
<path d="M30.8333 21.6667C27.6167 21.6667 25 24.2833 25 27.5C25 30.7167 27.6167 33.3333 30.8333 33.3333C34.05 33.3333 36.6667 30.7167 36.6667 27.5C36.6667 24.2833 34.05 21.6667 30.8333 21.6667ZM34.1667 28.3333H27.5V26.6667H34.1667V28.3333ZM22.5833 28.3333C22.55 28.05 22.5 27.7833 22.5 27.5C22.5 22.9 26.2333 19.1667 30.8333 19.1667C32.3667 19.1667 33.7667 19.6 35 20.3167V8.33333C35 6.5 33.5 5 31.6667 5H8.33333C6.5 5 5 6.5 5 8.33333V25C5 26.8333 6.5 28.3333 8.33333 28.3333H22.5833ZM20 17.5L8.33333 11.6667V8.33333L20 14.1667L31.6667 8.33333V11.6667L20 17.5Z" fill="black"/>
</svg>
