<svg width="16" height="16" viewBox="0 0 16 16" fill="none" xmlns="http://www.w3.org/2000/svg">
<path d="M10.8267 7.67333L11.8733 6.62666L9.37333 4.12666L8.32667 5.17333L5.56667 2.41999C5.04667 1.89999 4.2 1.89999 3.68 2.41999L2.41333 3.68666C1.89333 4.20666 1.89333 5.05333 2.41333 5.57333L5.16667 8.32666L2 11.5V14H4.5L7.67333 10.8267L10.4267 13.58C11.06 14.2133 11.9133 13.98 12.3133 13.58L13.58 12.3133C14.1 11.7933 14.1 10.9467 13.58 10.4267L10.8267 7.67333ZM6.12 7.37999L3.36 4.62666L4.62 3.35999L5.46667 4.20666L4.68 4.99999L5.62 5.93999L6.41333 5.14666L7.38 6.11333L6.12 7.37999ZM11.3733 12.64L8.62 9.88666L9.88667 8.61999L10.8533 9.58666L10.06 10.38L11 11.32L11.7933 10.5267L12.64 11.3733L11.3733 12.64ZM13.8067 4.69333C14.0667 4.43333 14.0667 4.01333 13.8067 3.75333L12.2467 2.19333C11.9333 1.87999 11.5 1.99999 11.3067 2.19333L10.0867 3.41333L12.5867 5.91333L13.8067 4.69333Z" fill="white"/>
</svg>
