<svg width="16" height="16" viewBox="0 0 16 16" fill="none" xmlns="http://www.w3.org/2000/svg">
<path d="M6.66659 9.99967L10.1266 7.99967L6.66659 5.99967V9.99967ZM14.3733 4.77967C14.4599 5.09301 14.5199 5.51301 14.5599 6.04634C14.6066 6.57967 14.6266 7.03967 14.6266 7.43967L14.6666 7.99967C14.6666 9.45967 14.5599 10.533 14.3733 11.2197C14.2066 11.8197 13.8199 12.2063 13.2199 12.373C12.9066 12.4597 12.3333 12.5197 11.4533 12.5597C10.5866 12.6063 9.79325 12.6263 9.05992 12.6263L7.99992 12.6663C5.20659 12.6663 3.46659 12.5597 2.77992 12.373C2.17992 12.2063 1.79325 11.8197 1.62659 11.2197C1.53992 10.9063 1.47992 10.4863 1.43992 9.95301C1.39325 9.41967 1.37325 8.95967 1.37325 8.55967L1.33325 7.99967C1.33325 6.53967 1.43992 5.46634 1.62659 4.77967C1.79325 4.17967 2.17992 3.79301 2.77992 3.62634C3.09325 3.53967 3.66659 3.47967 4.54659 3.43967C5.41325 3.39301 6.20659 3.37301 6.93992 3.37301L7.99992 3.33301C10.7933 3.33301 12.5333 3.43967 13.2199 3.62634C13.8199 3.79301 14.2066 4.17967 14.3733 4.77967Z" fill="black"/>
</svg>
